<?xml version="1.0" standalone="no"?><!DOCTYPE svg PUBLIC "-//W3C//DTD SVG 1.1//EN" "http://www.w3.org/Graphics/SVG/1.1/DTD/svg11.dtd"><svg t="1670133222727" class="icon" viewBox="0 0 1024 1024" version="1.1" xmlns="http://www.w3.org/2000/svg" p-id="15234" width="64" height="64" xmlns:xlink="http://www.w3.org/1999/xlink"><path d="M921.6 518.6624a77.824 77.824 0 0 0-6.4-0.2624h-153.6c-42.4128 0-76.8 34.3872-76.8 76.8s34.3872 76.8 76.8 76.8h153.6c2.1568 0 4.288-0.0896 6.4-0.2624V800c0 42.4128-34.3872 76.8-76.8 76.8H179.2c-42.4128 0-76.8-34.3872-76.8-76.8V390.4c0-42.4128 34.3872-76.8 76.8-76.8h665.6c42.4128 0 76.8 34.3872 76.8 76.8v128.2624zM861.5168 275.2H216.5248a76.9792 76.9792 0 0 1 25.9648-12.3776l500.3008-132.224c40.9344-10.816 83.008 13.1392 93.984 53.5168L861.5168 275.2zM761.6 544h134.4a25.6 25.6 0 0 1 25.6 25.6v51.2a25.6 25.6 0 0 1-25.6 25.6h-134.4a51.2 51.2 0 1 1 0-102.4z m6.4 83.2a32 32 0 1 0 0-64 32 32 0 0 0 0 64z" fill="#59AAFF" p-id="15235"></path></svg>